ISO-10303-21;
HEADER;
FILE_DESCRIPTION(('Open CASCADE Model'),'2;1');
FILE_NAME('Open CASCADE Shape Model','2026-09-27T20:28:08',('Author'),(
    'Open CASCADE'),'Open CASCADE STEP processor 7.8','Open CASCADE 7.8'
  ,'Unknown');
FILE_SCHEMA(('AUTOMOTIVE_DESIGN { 1 0 10303 214 1 1 1 1 }'));
ENDSEC;
DATA;
#1 = APPLICATION_PROTOCOL_DEFINITION('international standard',
  'automotive_design',2000,#2);
#2 = APPLICATION_CONTEXT(
  'core data for automotive mechanical design processes');
#3 = SHAPE_DEFINITION_REPRESENTATION(#4,#10);
#4 = PRODUCT_DEFINITION_SHAPE('','',#5);
#5 = PRODUCT_DEFINITION('design','',#6,#9);
#6 = PRODUCT_DEFINITION_FORMATION('','',#7);
#7 = PRODUCT('Open CASCADE STEP translator 7.8 3',
  'Open CASCADE STEP translator 7.8 3','',(#8));
#8 = PRODUCT_CONTEXT('',#2,'mechanical');
#9 = PRODUCT_DEFINITION_CONTEXT('part definition',#2,'design');
#10 = ADVANCED_BREP_SHAPE_REPRESENTATION('',(#11,#15),#303);
#11 = AXIS2_PLACEMENT_3D('',#12,#13,#14);
#12 = CARTESIAN_POINT('',(0.,0.,0.));
#13 = DIRECTION('',(0.,0.,1.));
#14 = DIRECTION('',(1.,0.,-0.));
#15 = MANIFOLD_SOLID_BREP('',#16);
#16 = CLOSED_SHELL('',(#17,#203,#291,#295,#299));
#17 = ADVANCED_FACE('',(#18),#33,.T.);
#18 = FACE_BOUND('',#19,.T.);
#19 = EDGE_LOOP('',(#20,#82,#118,#141,#168,#169));
#20 = ORIENTED_EDGE('',*,*,#21,.F.);
#21 = EDGE_CURVE('',#22,#24,#26,.T.);
#22 = VERTEX_POINT('',#23);
#23 = CARTESIAN_POINT('',(3.061616997868E-16,5.,50.));
#24 = VERTEX_POINT('',#25);
#25 = CARTESIAN_POINT('',(-9.184850993605E-16,-5.,50.));
#26 = SURFACE_CURVE('',#27,(#32,#57),.PCURVE_S1.);
#27 = ELLIPSE('',#28,7.071067811865,5.);
#28 = AXIS2_PLACEMENT_3D('',#29,#30,#31);
#29 = CARTESIAN_POINT('',(0.,0.,50.));
#30 = DIRECTION('',(-0.707106781187,0.,0.707106781187));
#31 = DIRECTION('',(0.707106781187,0.,0.707106781187));
#32 = PCURVE('',#33,#38);
#33 = CYLINDRICAL_SURFACE('',#34,5.);
#34 = AXIS2_PLACEMENT_3D('',#35,#36,#37);
#35 = CARTESIAN_POINT('',(0.,0.,0.));
#36 = DIRECTION('',(0.,0.,1.));
#37 = DIRECTION('',(1.,0.,-0.));
#38 = DEFINITIONAL_REPRESENTATION('',(#39),#56);
#39 = B_SPLINE_CURVE_WITH_KNOTS('',8,(#40,#41,#42,#43,#44,#45,#46,#47,
    #48,#49,#50,#51,#52,#53,#54,#55),.UNSPECIFIED.,.F.,.F.,(9,7,9),(
    1.570796266795,3.14159265359,4.712389040385),.UNSPECIFIED.);
#40 = CARTESIAN_POINT('',(1.570796266795,50.0000003));
#41 = CARTESIAN_POINT('',(1.767145815144,49.018252558253));
#42 = CARTESIAN_POINT('',(1.963495363493,48.036504570147));
#43 = CARTESIAN_POINT('',(2.15984491184,47.112433848321));
#44 = CARTESIAN_POINT('',(2.356194460193,46.303706345177));
#45 = CARTESIAN_POINT('',(2.552544008531,45.660909818835));
#46 = CARTESIAN_POINT('',(2.748893556892,45.220303896735));
#47 = CARTESIAN_POINT('',(2.94524310524,45.));
#48 = CARTESIAN_POINT('',(3.337942201939,45.));
#49 = CARTESIAN_POINT('',(3.534291750284,45.220303896749));
#50 = CARTESIAN_POINT('',(3.730641298638,45.66090981866));
#51 = CARTESIAN_POINT('',(3.926990846969,46.303706345032));
#52 = CARTESIAN_POINT('',(4.123340395341,47.112433848262));
#53 = CARTESIAN_POINT('',(4.319689943685,48.036504570184));
#54 = CARTESIAN_POINT('',(4.516039492035,49.018252558253));
#55 = CARTESIAN_POINT('',(4.712389040385,50.0000003));
#56 = ( GEOMETRIC_REPRESENTATION_CONTEXT(2) 
PARAMETRIC_REPRESENTATION_CONTEXT() REPRESENTATION_CONTEXT('2D SPACE',''
  ) );
#57 = PCURVE('',#58,#63);
#58 = CYLINDRICAL_SURFACE('',#59,5.);
#59 = AXIS2_PLACEMENT_3D('',#60,#61,#62);
#60 = CARTESIAN_POINT('',(-30.,0.,50.));
#61 = DIRECTION('',(1.,0.,0.));
#62 = DIRECTION('',(-0.,0.,1.));
#63 = DEFINITIONAL_REPRESENTATION('',(#64),#81);
#64 = B_SPLINE_CURVE_WITH_KNOTS('',8,(#65,#66,#67,#68,#69,#70,#71,#72,
    #73,#74,#75,#76,#77,#78,#79,#80),.UNSPECIFIED.,.F.,.F.,(9,7,9),(
    1.570796266795,3.14159265359,4.712389040385),.UNSPECIFIED.);
#65 = CARTESIAN_POINT('',(4.712389040385,30.0000003));
#66 = CARTESIAN_POINT('',(4.516039492035,29.018252558253));
#67 = CARTESIAN_POINT('',(4.319689943693,28.036504570198));
#68 = CARTESIAN_POINT('',(4.123340395316,27.112433848321));
#69 = CARTESIAN_POINT('',(3.926990847016,26.303706345352));
#70 = CARTESIAN_POINT('',(3.730641298625,25.660909818645));
#71 = CARTESIAN_POINT('',(3.534291750295,25.220303896778));
#72 = CARTESIAN_POINT('',(3.337942201939,25.));
#73 = CARTESIAN_POINT('',(2.94524310524,25.));
#74 = CARTESIAN_POINT('',(2.748893556889,25.220303896731));
#75 = CARTESIAN_POINT('',(2.552544008543,25.660909818835));
#76 = CARTESIAN_POINT('',(2.35619446019,26.303706345163));
#77 = CARTESIAN_POINT('',(2.159844911846,27.112433848437));
#78 = CARTESIAN_POINT('',(1.963495363492,28.036504570166));
#79 = CARTESIAN_POINT('',(1.767145815144,29.018252558253));
#80 = CARTESIAN_POINT('',(1.570796266795,30.0000003));
#81 = ( GEOMETRIC_REPRESENTATION_CONTEXT(2) 
PARAMETRIC_REPRESENTATION_CONTEXT() REPRESENTATION_CONTEXT('2D SPACE',''
  ) );
#82 = ORIENTED_EDGE('',*,*,#83,.F.);
#83 = EDGE_CURVE('',#84,#22,#86,.T.);
#84 = VERTEX_POINT('',#85);
#85 = CARTESIAN_POINT('',(5.,-1.224646799147E-15,45.));
#86 = SURFACE_CURVE('',#87,(#92,#105),.PCURVE_S1.);
#87 = ELLIPSE('',#88,7.071067811865,5.);
#88 = AXIS2_PLACEMENT_3D('',#89,#90,#91);
#89 = CARTESIAN_POINT('',(0.,0.,50.));
#90 = DIRECTION('',(0.707106781187,0.,0.707106781187));
#91 = DIRECTION('',(-0.707106781187,0.,0.707106781187));
#92 = PCURVE('',#33,#93);
#93 = DEFINITIONAL_REPRESENTATION('',(#94),#104);
#94 = B_SPLINE_CURVE_WITH_KNOTS('',8,(#95,#96,#97,#98,#99,#100,#101,#102
    ,#103),.UNSPECIFIED.,.F.,.F.,(9,9),(3.14159265359,4.712389040385),
  .PIECEWISE_BEZIER_KNOTS.);
#95 = CARTESIAN_POINT('',(-8.881784197001E-16,45.));
#96 = CARTESIAN_POINT('',(0.196349548349,45.));
#97 = CARTESIAN_POINT('',(0.392699096698,45.220303896749));
#98 = CARTESIAN_POINT('',(0.589048645047,45.66090981866));
#99 = CARTESIAN_POINT('',(0.785398193395,46.303706345032));
#100 = CARTESIAN_POINT('',(0.981747741746,47.112433848262));
#101 = CARTESIAN_POINT('',(1.178097290096,48.036504570184));
#102 = CARTESIAN_POINT('',(1.374446838446,49.018252558253));
#103 = CARTESIAN_POINT('',(1.570796386795,50.0000003));
#104 = ( GEOMETRIC_REPRESENTATION_CONTEXT(2) 
PARAMETRIC_REPRESENTATION_CONTEXT() REPRESENTATION_CONTEXT('2D SPACE',''
  ) );
#105 = PCURVE('',#58,#106);
#106 = DEFINITIONAL_REPRESENTATION('',(#107),#117);
#107 = B_SPLINE_CURVE_WITH_KNOTS('',8,(#108,#109,#110,#111,#112,#113,
    #114,#115,#116),.UNSPECIFIED.,.F.,.F.,(9,9),(3.14159265359,
    4.712389040385),.PIECEWISE_BEZIER_KNOTS.);
#108 = CARTESIAN_POINT('',(3.14159265359,35.));
#109 = CARTESIAN_POINT('',(3.337942201939,35.));
#110 = CARTESIAN_POINT('',(3.534291750282,34.7796961032));
#111 = CARTESIAN_POINT('',(3.730641298647,34.33909018118));
#112 = CARTESIAN_POINT('',(3.926990846958,33.696293654561));
#113 = CARTESIAN_POINT('',(4.123340395356,32.887566151578));
#114 = CARTESIAN_POINT('',(4.319689943681,31.96349542978));
#115 = CARTESIAN_POINT('',(4.516039492035,30.981747441747));
#116 = CARTESIAN_POINT('',(4.712389040385,29.9999997));
#117 = ( GEOMETRIC_REPRESENTATION_CONTEXT(2) 
PARAMETRIC_REPRESENTATION_CONTEXT() REPRESENTATION_CONTEXT('2D SPACE',''
  ) );
#118 = ORIENTED_EDGE('',*,*,#119,.F.);
#119 = EDGE_CURVE('',#120,#84,#122,.T.);
#120 = VERTEX_POINT('',#121);
#121 = CARTESIAN_POINT('',(5.,-1.224646799147E-15,0.));
#122 = SEAM_CURVE('',#123,(#127,#134),.PCURVE_S1.);
#123 = LINE('',#124,#125);
#124 = CARTESIAN_POINT('',(5.,-1.224646799147E-15,0.));
#125 = VECTOR('',#126,1.);
#126 = DIRECTION('',(0.,0.,1.));
#127 = PCURVE('',#33,#128);
#128 = DEFINITIONAL_REPRESENTATION('',(#129),#133);
#129 = LINE('',#130,#131);
#130 = CARTESIAN_POINT('',(6.28318530718,-0.));
#131 = VECTOR('',#132,1.);
#132 = DIRECTION('',(0.,1.));
#133 = ( GEOMETRIC_REPRESENTATION_CONTEXT(2) 
PARAMETRIC_REPRESENTATION_CONTEXT() REPRESENTATION_CONTEXT('2D SPACE',''
  ) );
#134 = PCURVE('',#33,#135);
#135 = DEFINITIONAL_REPRESENTATION('',(#136),#140);
#136 = LINE('',#137,#138);
#137 = CARTESIAN_POINT('',(0.,-0.));
#138 = VECTOR('',#139,1.);
#139 = DIRECTION('',(0.,1.));
#140 = ( GEOMETRIC_REPRESENTATION_CONTEXT(2) 
PARAMETRIC_REPRESENTATION_CONTEXT() REPRESENTATION_CONTEXT('2D SPACE',''
  ) );
#141 = ORIENTED_EDGE('',*,*,#142,.T.);
#142 = EDGE_CURVE('',#120,#120,#143,.T.);
#143 = SURFACE_CURVE('',#144,(#149,#156),.PCURVE_S1.);
#144 = CIRCLE('',#145,5.);
#145 = AXIS2_PLACEMENT_3D('',#146,#147,#148);
#146 = CARTESIAN_POINT('',(0.,0.,0.));
#147 = DIRECTION('',(0.,0.,1.));
#148 = DIRECTION('',(1.,0.,-0.));
#149 = PCURVE('',#33,#150);
#150 = DEFINITIONAL_REPRESENTATION('',(#151),#155);
#151 = LINE('',#152,#153);
#152 = CARTESIAN_POINT('',(0.,0.));
#153 = VECTOR('',#154,1.);
#154 = DIRECTION('',(1.,0.));
#155 = ( GEOMETRIC_REPRESENTATION_CONTEXT(2) 
PARAMETRIC_REPRESENTATION_CONTEXT() REPRESENTATION_CONTEXT('2D SPACE',''
  ) );
#156 = PCURVE('',#157,#162);
#157 = PLANE('',#158);
#158 = AXIS2_PLACEMENT_3D('',#159,#160,#161);
#159 = CARTESIAN_POINT('',(0.,0.,0.));
#160 = DIRECTION('',(0.,0.,1.));
#161 = DIRECTION('',(1.,0.,-0.));
#162 = DEFINITIONAL_REPRESENTATION('',(#163),#167);
#163 = CIRCLE('',#164,5.);
#164 = AXIS2_PLACEMENT_2D('',#165,#166);
#165 = CARTESIAN_POINT('',(0.,0.));
#166 = DIRECTION('',(1.,0.));
#167 = ( GEOMETRIC_REPRESENTATION_CONTEXT(2) 
PARAMETRIC_REPRESENTATION_CONTEXT() REPRESENTATION_CONTEXT('2D SPACE',''
  ) );
#168 = ORIENTED_EDGE('',*,*,#119,.T.);
#169 = ORIENTED_EDGE('',*,*,#170,.F.);
#170 = EDGE_CURVE('',#24,#84,#171,.T.);
#171 = SURFACE_CURVE('',#172,(#177,#190),.PCURVE_S1.);
#172 = ELLIPSE('',#173,7.071067811865,5.);
#173 = AXIS2_PLACEMENT_3D('',#174,#175,#176);
#174 = CARTESIAN_POINT('',(0.,0.,50.));
#175 = DIRECTION('',(0.707106781187,0.,0.707106781187));
#176 = DIRECTION('',(-0.707106781187,0.,0.707106781187));
#177 = PCURVE('',#33,#178);
#178 = DEFINITIONAL_REPRESENTATION('',(#179),#189);
#179 = B_SPLINE_CURVE_WITH_KNOTS('',8,(#180,#181,#182,#183,#184,#185,
    #186,#187,#188),.UNSPECIFIED.,.F.,.F.,(9,9),(1.570796266795,
    3.14159265359),.PIECEWISE_BEZIER_KNOTS.);
#180 = CARTESIAN_POINT('',(4.712388920385,50.0000003));
#181 = CARTESIAN_POINT('',(4.908738468734,49.018252558253));
#182 = CARTESIAN_POINT('',(5.105088017088,48.036504570147));
#183 = CARTESIAN_POINT('',(5.301437565413,47.112433848321));
#184 = CARTESIAN_POINT('',(5.497787113789,46.303706345177));
#185 = CARTESIAN_POINT('',(5.694136662107,45.660909818835));
#186 = CARTESIAN_POINT('',(5.890486210485,45.220303896735));
#187 = CARTESIAN_POINT('',(6.08683575883,45.));
#188 = CARTESIAN_POINT('',(6.28318530718,45.));
#189 = ( GEOMETRIC_REPRESENTATION_CONTEXT(2) 
PARAMETRIC_REPRESENTATION_CONTEXT() REPRESENTATION_CONTEXT('2D SPACE',''
  ) );
#190 = PCURVE('',#58,#191);
#191 = DEFINITIONAL_REPRESENTATION('',(#192),#202);
#192 = B_SPLINE_CURVE_WITH_KNOTS('',8,(#193,#194,#195,#196,#197,#198,
    #199,#200,#201),.UNSPECIFIED.,.F.,.F.,(9,9),(1.570796266795,
    3.14159265359),.PIECEWISE_BEZIER_KNOTS.);
#193 = CARTESIAN_POINT('',(1.570796266795,29.9999997));
#194 = CARTESIAN_POINT('',(1.767145815144,30.981747441747));
#195 = CARTESIAN_POINT('',(1.963495363497,31.963495429769));
#196 = CARTESIAN_POINT('',(2.159844911827,32.887566151549));
#197 = CARTESIAN_POINT('',(2.356194460206,33.696293654561));
#198 = CARTESIAN_POINT('',(2.552544008533,34.339090181151));
#199 = CARTESIAN_POINT('',(2.748893556895,34.779696103207));
#200 = CARTESIAN_POINT('',(2.94524310524,35.));
#201 = CARTESIAN_POINT('',(3.14159265359,35.));
#202 = ( GEOMETRIC_REPRESENTATION_CONTEXT(2) 
PARAMETRIC_REPRESENTATION_CONTEXT() REPRESENTATION_CONTEXT('2D SPACE',''
  ) );
#203 = ADVANCED_FACE('',(#204,#286),#58,.T.);
#204 = FACE_BOUND('',#205,.T.);
#205 = EDGE_LOOP('',(#206,#231,#258,#259));
#206 = ORIENTED_EDGE('',*,*,#207,.T.);
#207 = EDGE_CURVE('',#208,#210,#212,.T.);
#208 = VERTEX_POINT('',#209);
#209 = CARTESIAN_POINT('',(-30.,1.224646799147E-15,55.));
#210 = VERTEX_POINT('',#211);
#211 = CARTESIAN_POINT('',(30.,1.224646799147E-15,55.));
#212 = SEAM_CURVE('',#213,(#217,#224),.PCURVE_S1.);
#213 = LINE('',#214,#215);
#214 = CARTESIAN_POINT('',(-30.,1.224646799147E-15,55.));
#215 = VECTOR('',#216,1.);
#216 = DIRECTION('',(1.,0.,0.));
#217 = PCURVE('',#58,#218);
#218 = DEFINITIONAL_REPRESENTATION('',(#219),#223);
#219 = LINE('',#220,#221);
#220 = CARTESIAN_POINT('',(6.28318530718,-0.));
#221 = VECTOR('',#222,1.);
#222 = DIRECTION('',(0.,1.));
#223 = ( GEOMETRIC_REPRESENTATION_CONTEXT(2) 
PARAMETRIC_REPRESENTATION_CONTEXT() REPRESENTATION_CONTEXT('2D SPACE',''
  ) );
#224 = PCURVE('',#58,#225);
#225 = DEFINITIONAL_REPRESENTATION('',(#226),#230);
#226 = LINE('',#227,#228);
#227 = CARTESIAN_POINT('',(0.,-0.));
#228 = VECTOR('',#229,1.);
#229 = DIRECTION('',(0.,1.));
#230 = ( GEOMETRIC_REPRESENTATION_CONTEXT(2) 
PARAMETRIC_REPRESENTATION_CONTEXT() REPRESENTATION_CONTEXT('2D SPACE',''
  ) );
#231 = ORIENTED_EDGE('',*,*,#232,.F.);
#232 = EDGE_CURVE('',#210,#210,#233,.T.);
#233 = SURFACE_CURVE('',#234,(#239,#246),.PCURVE_S1.);
#234 = CIRCLE('',#235,5.);
#235 = AXIS2_PLACEMENT_3D('',#236,#237,#238);
#236 = CARTESIAN_POINT('',(30.,0.,50.));
#237 = DIRECTION('',(1.,0.,0.));
#238 = DIRECTION('',(-0.,0.,1.));
#239 = PCURVE('',#58,#240);
#240 = DEFINITIONAL_REPRESENTATION('',(#241),#245);
#241 = LINE('',#242,#243);
#242 = CARTESIAN_POINT('',(0.,60.));
#243 = VECTOR('',#244,1.);
#244 = DIRECTION('',(1.,0.));
#245 = ( GEOMETRIC_REPRESENTATION_CONTEXT(2) 
PARAMETRIC_REPRESENTATION_CONTEXT() REPRESENTATION_CONTEXT('2D SPACE',''
  ) );
#246 = PCURVE('',#247,#252);
#247 = PLANE('',#248);
#248 = AXIS2_PLACEMENT_3D('',#249,#250,#251);
#249 = CARTESIAN_POINT('',(30.,0.,50.));
#250 = DIRECTION('',(1.,0.,0.));
#251 = DIRECTION('',(-0.,0.,1.));
#252 = DEFINITIONAL_REPRESENTATION('',(#253),#257);
#253 = CIRCLE('',#254,5.);
#254 = AXIS2_PLACEMENT_2D('',#255,#256);
#255 = CARTESIAN_POINT('',(0.,0.));
#256 = DIRECTION('',(1.,0.));
#257 = ( GEOMETRIC_REPRESENTATION_CONTEXT(2) 
PARAMETRIC_REPRESENTATION_CONTEXT() REPRESENTATION_CONTEXT('2D SPACE',''
  ) );
#258 = ORIENTED_EDGE('',*,*,#207,.F.);
#259 = ORIENTED_EDGE('',*,*,#260,.T.);
#260 = EDGE_CURVE('',#208,#208,#261,.T.);
#261 = SURFACE_CURVE('',#262,(#267,#274),.PCURVE_S1.);
#262 = CIRCLE('',#263,5.);
#263 = AXIS2_PLACEMENT_3D('',#264,#265,#266);
#264 = CARTESIAN_POINT('',(-30.,0.,50.));
#265 = DIRECTION('',(1.,0.,0.));
#266 = DIRECTION('',(-0.,0.,1.));
#267 = PCURVE('',#58,#268);
#268 = DEFINITIONAL_REPRESENTATION('',(#269),#273);
#269 = LINE('',#270,#271);
#270 = CARTESIAN_POINT('',(0.,0.));
#271 = VECTOR('',#272,1.);
#272 = DIRECTION('',(1.,0.));
#273 = ( GEOMETRIC_REPRESENTATION_CONTEXT(2) 
PARAMETRIC_REPRESENTATION_CONTEXT() REPRESENTATION_CONTEXT('2D SPACE',''
  ) );
#274 = PCURVE('',#275,#280);
#275 = PLANE('',#276);
#276 = AXIS2_PLACEMENT_3D('',#277,#278,#279);
#277 = CARTESIAN_POINT('',(-30.,0.,50.));
#278 = DIRECTION('',(1.,0.,0.));
#279 = DIRECTION('',(-0.,0.,1.));
#280 = DEFINITIONAL_REPRESENTATION('',(#281),#285);
#281 = CIRCLE('',#282,5.);
#282 = AXIS2_PLACEMENT_2D('',#283,#284);
#283 = CARTESIAN_POINT('',(0.,0.));
#284 = DIRECTION('',(1.,0.));
#285 = ( GEOMETRIC_REPRESENTATION_CONTEXT(2) 
PARAMETRIC_REPRESENTATION_CONTEXT() REPRESENTATION_CONTEXT('2D SPACE',''
  ) );
#286 = FACE_BOUND('',#287,.T.);
#287 = EDGE_LOOP('',(#288,#289,#290));
#288 = ORIENTED_EDGE('',*,*,#21,.T.);
#289 = ORIENTED_EDGE('',*,*,#170,.T.);
#290 = ORIENTED_EDGE('',*,*,#83,.T.);
#291 = ADVANCED_FACE('',(#292),#157,.F.);
#292 = FACE_BOUND('',#293,.T.);
#293 = EDGE_LOOP('',(#294));
#294 = ORIENTED_EDGE('',*,*,#142,.F.);
#295 = ADVANCED_FACE('',(#296),#275,.F.);
#296 = FACE_BOUND('',#297,.T.);
#297 = EDGE_LOOP('',(#298));
#298 = ORIENTED_EDGE('',*,*,#260,.F.);
#299 = ADVANCED_FACE('',(#300),#247,.T.);
#300 = FACE_BOUND('',#301,.T.);
#301 = EDGE_LOOP('',(#302));
#302 = ORIENTED_EDGE('',*,*,#232,.T.);
#303 = ( GEOMETRIC_REPRESENTATION_CONTEXT(3) 
GLOBAL_UNCERTAINTY_ASSIGNED_CONTEXT((#307)) GLOBAL_UNIT_ASSIGNED_CONTEXT
((#304,#305,#306)) REPRESENTATION_CONTEXT('Context #1',
  '3D Context with UNIT and UNCERTAINTY') );
#304 = ( LENGTH_UNIT() NAMED_UNIT(*) SI_UNIT(.MILLI.,.METRE.) );
#305 = ( NAMED_UNIT(*) PLANE_ANGLE_UNIT() SI_UNIT($,.RADIAN.) );
#306 = ( NAMED_UNIT(*) SI_UNIT($,.STERADIAN.) SOLID_ANGLE_UNIT() );
#307 = UNCERTAINTY_MEASURE_WITH_UNIT(LENGTH_MEASURE(1.E-07),#304,
  'distance_accuracy_value','confusion accuracy');
#308 = PRODUCT_RELATED_PRODUCT_CATEGORY('part',$,(#7));
ENDSEC;
END-ISO-10303-21;
